HIERARCHY
ROOT Hips
{
	OFFSET 0.00000 0.00000 0.00000
	CHANNELS 6 Xposition Yposition Zposition Zrotation Yrotation Xrotation 
	JOINT LHipJoint
	{
		OFFSET 0 0 0
		CHANNELS 3 Zrotation Yrotation Xrotation
		JOINT LeftUpLeg
		{
			OFFSET 1.34019 -1.87553 0.90315
			CHANNELS 3 Zrotation Yrotation Xrotation
			JOINT LeftLeg
			{
				OFFSET 2.55316 -7.01474 0.00000
				CHANNELS 3 Zrotation Yrotation Xrotation
				JOINT LeftFoot
				{
					OFFSET 2.64657 -7.27139 0.00000
					CHANNELS 3 Zrotation Yrotation Xrotation
					JOINT LeftToeBase
					{
						OFFSET 0.24207 -0.66507 2.14489
						CHANNELS 3 Zrotation Yrotation Xrotation
						End Site
						{
							OFFSET 0.00000 -0.00000 1.12451
						}
					}
				}
			}
		}
	}
	JOINT RHipJoint
	{
		OFFSET 0 0 0
		CHANNELS 3 Zrotation Yrotation Xrotation
		JOINT RightUpLeg
		{
			OFFSET -1.28320 -1.87553 0.90315
			CHANNELS 3 Zrotation Yrotation Xrotation
			JOINT RightLeg
			{
				OFFSET -2.60484 -7.15674 0.00000
				CHANNELS 3 Zrotation Yrotation Xrotation
				JOINT RightFoot
				{
					OFFSET -2.60296 -7.15159 0.00000
					CHANNELS 3 Zrotation Yrotation Xrotation
					JOINT RightToeBase
					{
						OFFSET -0.31082 -0.85398 2.28998
						CHANNELS 3 Zrotation Yrotation Xrotation
						End Site
						{
							OFFSET -0.00000 -0.00000 1.21611
						}
					}
				}
			}
		}
	}
	JOINT LowerBack
	{
		OFFSET 0 0 0
		CHANNELS 3 Zrotation Yrotation Xrotation
		JOINT Spine
		{
			OFFSET -0.00160 2.05581 -0.15156
			CHANNELS 3 Zrotation Yrotation Xrotation
			JOINT Spine1
			{
				OFFSET 0.04594 2.06326 -0.01617
				CHANNELS 3 Zrotation Yrotation Xrotation
				JOINT Neck
				{
					OFFSET 0 0 0
					CHANNELS 3 Zrotation Yrotation Xrotation
					JOINT Neck1
					{
						OFFSET 0.03753 1.73883 0.26751
						CHANNELS 3 Zrotation Yrotation Xrotation
						JOINT Head
						{
							OFFSET -0.09795 1.76129 -0.31794
							CHANNELS 3 Zrotation Yrotation Xrotation
							End Site
							{
								OFFSET -0.03611 1.79987 -0.13846
							}
						}
					}
				}
				JOINT LeftShoulder
				{
					OFFSET 0 0 0
					CHANNELS 3 Zrotation Yrotation Xrotation
					JOINT LeftArm
					{
						OFFSET 3.30667 1.29205 -0.22445
						CHANNELS 3 Zrotation Yrotation Xrotation
						JOINT LeftForeArm
						{
							OFFSET 4.92785 -0.00000 -0.00000
							CHANNELS 3 Zrotation Yrotation Xrotation
							JOINT LeftHand
							{
								OFFSET 3.44052 -0.00000 0.00000
								CHANNELS 3 Zrotation Yrotation Xrotation
								JOINT LeftFingerBase
								{
									OFFSET 0 0 0
									CHANNELS 3 Zrotation Yrotation Xrotation
									JOINT LeftHandIndex1
									{
										OFFSET 0.65433 -0.00000 0.00000
										CHANNELS 3 Zrotation Yrotation Xrotation
										End Site
										{
											OFFSET 0.52753 -0.00000 0.00000
										}
									}
								}
								JOINT LThumb
								{
									OFFSET 0 0 0
									CHANNELS 3 Zrotation Yrotation Xrotation
									End Site
									{
										OFFSET 0.53559 -0.00000 0.53559
									}
								}
							}
						}
					}
				}
				JOINT RightShoulder
				{
					OFFSET 0 0 0
					CHANNELS 3 Zrotation Yrotation Xrotation
					JOINT RightArm
					{
						OFFSET -3.20032 1.49783 -0.27688
						CHANNELS 3 Zrotation Yrotation Xrotation
						JOINT RightForeArm
						{
							OFFSET -5.09181 -0.00000 -0.00000
							CHANNELS 3 Zrotation Yrotation Xrotation
							JOINT RightHand
							{
								OFFSET -3.49865 -0.00000 -0.00000
								CHANNELS 3 Zrotation Yrotation Xrotation
								JOINT RightFingerBase
								{
									OFFSET 0 0 0
									CHANNELS 3 Zrotation Yrotation Xrotation
									JOINT RightHandIndex1
									{
										OFFSET -0.66641 -0.00000 0.00000
										CHANNELS 3 Zrotation Yrotation Xrotation
										End Site
										{
											OFFSET -0.53728 -0.00000 0.00000
										}
									}
								}
								JOINT RThumb
								{
									OFFSET 0 0 0
									CHANNELS 3 Zrotation Yrotation Xrotation
									End Site
									{
										OFFSET -0.54548 -0.00000 0.54548
									}
								}
							}
						}
					}
				}
			}
		}
	}
}
MOTION
Frames: 11
Frame Time: .0083333
0.8354 17.8347 -31.218 0 0 0 0 0 0 -21 0 0 0 0 0 0 0 0 0 0 0 0 0 0 21 0 0 0 0 0 0 0 0 0 0 0 0 0 0 0 0 0 0 0 0 0 0 -16 0 0 21 0 0 11 0 0 0 -8 0 0 0 0 0 0 0 0 0 0 0 0 0 0 0 0 0 0 0 0 8 0 0 0 0 0 0 0 0 0 0 0 0 0 0 0 0 0
0.8354 17.8347 -31.2180 -2.4772 2.5065 1.6544 0.0000 0.0000 0.0000 -14.0292 -5.9004 -6.3820 2.2195 9.3091 26.7670 0.1529 10.9901 -17.7152 0.1932 -2.8306 -7.8075 0.0000 0.0000 0.0000 22.6346 0.2294 -10.5991 -2.8501 -10.4484 30.4414 -0.1637 -13.8594 -21.4647 -0.0201 0.9144 -2.5133 -2.9561 -0.4946 4.7958 4.3535 -0.6779 -1.4033 6.2723 -0.2042 -4.0665 7.0658 1.4646 -21.3875 -9.4007 2.4027 25.6826 -4.3861 0.5210 12.2323 -0.0000 -0.0000 0.0000 -89.7005 4.0309 25.9669 14.9551 -24.0835 -3.2076 -0.0000 0.0000 -7.7771 12.7162 -0.7279 -0.1642 -7.1250 0.0000 -0.0000 -10.7895 29.1550 4.2345 -0.0000 -0.0000 0.0000 83.6320 -3.3713 9.6696 -13.0449 21.3530 -2.4696 0.0000 -0.0000 -3.9460 -17.0338 -5.4671 1.6720 7.1250 -0.0000 -0.0000 8.0614 -35.5997 1.8773
0.8327 17.8344 -31.2129 -2.5044 2.5015 1.6733 0.0000 0.0000 0.0000 -13.9759 -5.8623 -6.4031 2.2206 9.3112 26.7737 0.1606 10.9314 -17.7395 0.1963 -2.8529 -7.8694 0.0000 0.0000 0.0000 22.6817 0.2831 -10.5762 -2.8524 -10.4523 30.4541 -0.1700 -13.8605 -21.5305 -0.0191 0.8929 -2.4541 -2.8868 -0.5574 4.7596 4.3150 -0.7580 -1.4428 6.1975 -0.2454 -4.0777 7.2502 1.7240 -20.9359 -9.2860 2.6570 24.9470 -4.2955 0.6772 11.8824 -0.0000 -0.0000 0.0000 -89.6382 4.1362 25.7935 14.7920 -23.8555 -3.1413 -0.0000 0.0000 -7.2875 12.9458 -0.8854 -0.2035 -7.1250 0.0000 -0.0000 -10.5961 28.9982 4.1964 -0.0000 -0.0000 0.0000 83.7637 -3.4231 9.6925 -13.0077 21.2984 -2.4561 0.0000 -0.0000 -3.8841 -17.0417 -5.4400 1.6645 7.1250 -0.0000 -0.0000 8.0513 -35.5721 1.8804
0.8312 17.8345 -31.2111 -2.5587 2.3923 1.7317 0.0000 0.0000 0.0000 -13.9047 -5.8041 -6.4564 2.2200 9.3101 26.7702 0.1633 10.9314 -17.7727 0.1942 -2.8375 -7.8268 0.0000 0.0000 0.0000 22.7463 0.3851 -10.6186 -2.8536 -10.4542 30.4604 -0.1706 -13.8409 -21.5106 -0.0195 0.9019 -2.4788 -2.7683 -0.5813 4.7009 4.2739 -0.7831 -1.4716 6.0868 -0.2612 -4.0729 7.2620 1.8884 -20.8037 -9.0737 2.8206 24.7190 -4.1791 0.7821 11.7820 -0.0000 -0.0000 0.0000 -89.5680 4.1860 25.6427 14.7347 -23.7752 -3.1182 -0.0000 0.0000 -7.1669 12.7611 -0.4861 -0.1101 -7.1250 0.0000 -0.0000 -10.7803 29.3989 4.1671 -0.0000 -0.0000 0.0000 83.8874 -3.4921 9.8245 -13.0145 21.3085 -2.4586 0.0000 -0.0000 -3.8651 -17.0918 -5.5524 1.7041 7.1250 -0.0000 -0.0000 8.0244 -35.6909 1.8506
0.8339 17.8344 -31.2002 -2.5384 2.3240 1.7634 0.0000 0.0000 0.0000 -13.9502 -5.8243 -6.4142 2.2183 9.3067 26.7595 0.1591 11.0261 -17.8375 0.1956 -2.8484 -7.8569 0.0000 0.0000 0.0000 22.7060 0.3564 -10.6362 -2.8557 -10.4577 30.4718 -0.1798 -13.7650 -21.5081 -0.0199 0.9108 -2.5034 -2.7139 -0.5387 4.7148 4.2027 -0.7250 -1.4936 5.9759 -0.2330 -4.1121 7.2789 1.7496 -20.8387 -9.0689 2.6230 24.8999 -4.2193 0.6947 11.8382 0.0000 -0.0000 0.0000 -89.4534 4.1745 25.7369 14.6666 -23.6796 -3.0908 -0.0000 0.0000 -7.1571 12.7413 -0.4158 -0.0940 -7.1250 0.0000 -0.0000 -10.8031 29.4695 4.1577 0.0000 -0.0000 0.0000 84.0378 -3.5097 9.5112 -12.9358 21.1931 -2.4300 0.0000 -0.0000 -3.5578 -17.0485 -5.3126 1.6264 7.1250 -0.0000 -0.0000 8.0294 -35.4407 1.9011
0.8345 17.8345 -31.1928 -2.5228 2.2688 1.8055 0.0000 0.0000 0.0000 -13.9735 -5.8172 -6.4122 2.2162 9.3026 26.7465 0.1578 11.0653 -17.8695 0.1970 -2.8579 -7.8834 0.0000 0.0000 0.0000 22.6821 0.3690 -10.6631 -2.8583 -10.4620 30.4861 -0.1869 -13.7155 -21.5174 -0.0200 0.9138 -2.5117 -2.7410 -0.4396 4.6565 4.1465 -0.5957 -1.4956 5.9203 -0.1689 -4.0973 7.2068 1.5948 -20.7679 -8.9006 2.3766 24.8244 -4.1776 0.6000 11.7662 0.0000 -0.0000 0.0000 -89.3278 4.1241 26.0059 14.5843 -23.5638 -3.0578 -0.0000 0.0000 -7.0590 12.6883 -0.3417 -0.0769 -7.1250 0.0000 -0.0000 -10.8522 29.5435 4.1577 0.0000 -0.0000 0.0000 84.2087 -3.5449 9.1237 -12.9067 21.1504 -2.4195 0.0000 -0.0000 -3.4495 -17.0668 -5.2238 1.6011 7.1250 -0.0000 -0.0000 8.0029 -35.3497 1.9126
0.8354 17.8346 -31.1853 -2.4984 2.2251 1.8521 0.0000 0.0000 0.0000 -14.0077 -5.8165 -6.4081 2.2120 9.2944 26.7207 0.1550 11.1068 -17.8863 0.1987 -2.8705 -7.9184 0.0000 0.0000 0.0000 22.6474 0.3740 -10.6989 -2.8615 -10.4674 30.5040 -0.1934 -13.6699 -21.5263 -0.0203 0.9190 -2.5258 -2.7630 -0.3587 4.5622 4.0882 -0.4902 -1.4879 5.8608 -0.1178 -4.0489 7.1542 1.4478 -20.6805 -8.7706 2.1488 24.7748 -4.1517 0.5107 11.7044 0.0000 -0.0000 0.0000 -89.2091 4.0758 26.2426 14.5212 -23.4748 -3.0326 -0.0000 0.0000 -6.9988 12.6139 -0.3044 -0.0681 -7.1250 0.0000 -0.0000 -10.9139 29.5802 4.1724 0.0000 -0.0000 0.0000 84.3702 -3.5681 8.8009 -12.8824 21.1146 -2.4107 0.0000 -0.0000 -3.3858 -17.0925 -5.1327 1.5758 7.1250 -0.0000 -0.0000 7.9703 -35.2567 1.9229
0.8363 17.8348 -31.1776 -2.4699 2.1983 1.8999 0.0000 0.0000 0.0000 -14.0456 -5.8230 -6.4096 2.2086 9.2877 26.6996 0.1523 11.1425 -17.8984 0.2009 -2.8864 -7.9625 0.0000 0.0000 0.0000 22.6090 0.3730 -10.7369 -2.8651 -10.4734 30.5237 -0.1994 -13.6321 -21.5393 -0.0205 0.9234 -2.5381 -2.7811 -0.2904 4.4838 4.0293 -0.4014 -1.4907 5.8004 -0.0745 -4.0184 7.1166 1.3123 -20.5860 -8.6646 1.9404 24.7323 -4.1346 0.4284 11.6469 0.0000 0.0000 0.0000 -89.0941 4.0444 26.4655 14.4649 -23.3954 -3.0103 -0.0000 0.0000 -6.9490 12.5447 -0.3292 -0.0732 -7.1250 0.0000 -0.0000 -10.9648 29.5545 4.1994 0.0000 0.0000 0.0000 84.5260 -3.6110 8.5419 -12.8705 21.0972 -2.4065 0.0000 -0.0000 -3.3721 -17.1207 -5.0602 1.5563 7.1250 -0.0000 -0.0000 7.9381 -35.1830 1.9294
0.8368 17.8351 -31.1705 -2.4536 2.1823 1.9486 0.0000 0.0000 0.0000 -14.0668 -5.8321 -6.4212 2.2060 9.2827 26.6837 0.1496 11.1712 -17.9009 0.2033 -2.9032 -8.0092 0.0000 0.0000 0.0000 22.5882 0.3823 -10.7731 -2.8680 -10.4782 30.5396 -0.2030 -13.6138 -21.5524 -0.0206 0.9272 -2.5484 -2.7468 -0.2752 4.4285 3.9700 -0.3803 -1.5096 5.7156 -0.0656 -4.0097 7.1361 1.2703 -20.4841 -8.6022 1.8594 24.6839 -4.1236 0.4035 11.5996 -0.0000 -0.0000 0.0000 -88.9968 4.0662 26.5471 14.4287 -23.3443 -2.9959 -0.0000 0.0000 -6.9064 12.4750 -0.3691 -0.0817 -7.1250 0.0000 -0.0000 -11.0144 29.5135 4.2300 -0.0000 -0.0000 0.0000 84.6651 -3.6678 8.4661 -12.8663 21.0911 -2.4050 0.0000 -0.0000 -3.3861 -17.1446 -5.0201 1.5463 7.1250 -0.0000 -0.0000 7.9134 -35.1426 1.9312
0.8372 17.8354 -31.1635 -2.4530 2.1721 1.9945 0.0000 0.0000 0.0000 -14.0689 -5.8417 -6.4363 2.2048 9.2802 26.6758 0.1488 11.1917 -17.9158 0.2052 -2.9167 -8.0470 0.0000 0.0000 0.0000 22.5882 0.4003 -10.8012 -2.8697 -10.4810 30.5490 -0.2039 -13.6136 -21.5618 -0.0209 0.9323 -2.5625 -2.6459 -0.3217 4.4153 3.9100 -0.4380 -1.5485 5.5989 -0.0965 -4.0364 7.2216 1.3328 -20.4012 -8.5966 1.9223 24.6695 -4.1249 0.4423 11.5847 -0.0000 0.0000 0.0000 -88.9190 4.1425 26.4585 14.4090 -23.3164 -2.9881 -0.0000 0.0000 -6.8829 12.4196 -0.4098 -0.0903 -7.1250 0.0000 -0.0000 -11.0529 29.4719 4.2564 -0.0000 0.0000 0.0000 84.7833 -3.7380 8.5910 -12.8624 21.0852 -2.4036 0.0000 -0.0000 -3.3872 -17.1597 -4.9955 1.5402 7.1250 -0.0000 -0.0000 7.8979 -35.1178 1.9321
0.8374 17.8357 -31.1569 -2.4681 2.1634 2.0349 0.0000 0.0000 0.0000 -14.0529 -5.8530 -6.4524 2.2049 9.2804 26.6764 0.1475 11.2148 -17.9291 0.2069 -2.9288 -8.0807 0.0000 0.0000 0.0000 22.6087 0.4294 -10.8176 -2.8702 -10.4819 30.5517 -0.2021 -13.6304 -21.5651 -0.0212 0.9390 -2.5811 -2.4883 -0.4136 4.4567 3.8493 -0.5530 -1.6092 5.4549 -0.1560 -4.1109 7.3558 1.4812 -20.3440 -8.6259 2.1016 24.6803 -4.1310 0.5334 11.5972 0.0000 -0.0000 0.0000 -88.8548 4.2691 26.2443 14.4038 -23.3090 -2.9860 -0.0000 0.0000 -6.8919 12.3827 -0.4249 -0.0933 -7.1250 0.0000 -0.0000 -11.0797 29.4563 4.2713 0.0000 -0.0000 0.0000 84.8858 -3.8202 8.8161 -12.8437 21.0577 -2.3968 0.0000 -0.0000 -3.2542 -17.1016 -4.9001 1.5054 7.1250 -0.0000 -0.0000 7.9340 -35.0165 1.9608
